<svg width="19" height="16" viewBox="0 0 19 16" fill="none" xmlns="http://www.w3.org/2000/svg">
<path d="M17.7279 3.31712C16.8796 2.29301 15.7273 1.4841 14.2714 0.890445C12.8155 0.296864 11.2249 -1.11324e-09 9.50017 -1.11324e-09C8.21364 -1.11324e-09 6.98372 0.17528 5.81039 0.525913C4.63706 0.87651 3.62631 1.3504 2.77808 1.94749C1.92969 2.54464 1.25481 3.25459 0.75287 4.0773C0.250932 4.90004 0 5.76279 0 6.66542C0 7.70685 0.319746 8.68269 0.959498 9.59225C1.59925 10.5017 2.47385 11.2656 3.58372 11.8835C3.50588 12.1612 3.414 12.4251 3.30794 12.6748C3.20192 12.9248 3.10651 13.1299 3.02169 13.2896C2.9368 13.4492 2.82205 13.6264 2.67703 13.8208C2.53223 14.0151 2.42268 14.1523 2.34844 14.2321C2.27428 14.3119 2.15236 14.4441 1.98261 14.6278C1.81308 14.812 1.70345 14.9316 1.65403 14.9873C1.64686 14.9906 1.61863 15.022 1.56917 15.0809C1.51974 15.1399 1.49493 15.1693 1.49493 15.1693L1.43132 15.2629C1.39593 15.3151 1.38003 15.3481 1.38352 15.3617C1.38709 15.3753 1.38003 15.4102 1.36236 15.4657C1.34464 15.5214 1.34646 15.563 1.36763 15.5909V15.6013C1.39604 15.7264 1.45787 15.827 1.55324 15.9032C1.6486 15.9795 1.75652 16.0108 1.87662 15.9967C2.33619 15.9412 2.73905 15.8652 3.08534 15.7678C4.93734 15.3024 6.56315 14.4625 7.96264 13.2472C8.49265 13.3027 9.00514 13.3306 9.49994 13.3306C11.2246 13.3306 12.8152 13.0337 14.2712 12.4399C15.7273 11.8463 16.8794 11.0374 17.7276 10.0134C18.5759 8.98977 19 7.87349 19 6.66539C19 5.45725 18.576 4.34104 17.7279 3.31712Z" fill="#CDCCCD"/>
</svg>
