<svg width="30" height="40" viewBox="0 0 30 40" fill="none" xmlns="http://www.w3.org/2000/svg">
<path d="M3.88972 1.25617C4.87332 1.25617 5.67809 2.06371 5.67809 3.0507V36.9493C5.67809 37.9363 4.87332 38.7438 3.88972 38.7438H3.04024C2.05663 38.7438 1.25186 37.9363 1.25186 36.9493V3.0507C1.25186 2.06371 2.05663 1.25617 3.04024 1.25617H3.88972ZM3.88972 -1.71139e-08H3.04024C1.36811 -1.71139e-08 -1.36442e-07 1.37281 -1.36442e-07 3.0507V36.9493C-1.36442e-07 38.6272 1.36811 40 3.04024 40H3.88972C5.56185 40 6.92996 38.6272 6.92996 36.9493V3.0507C6.92996 1.36384 5.56185 -1.71139e-08 3.88972 -1.71139e-08Z" fill="black"/>
<path d="M3.88972 1.25617C4.87332 1.25617 5.67809 2.06371 5.67809 3.0507V18.2055C5.67809 19.1925 4.87332 20 3.88972 20H3.04024C2.05663 20 1.25186 19.1925 1.25186 18.2055V3.0507C1.25186 2.06371 2.05663 1.25617 3.04024 1.25617H3.88972ZM3.88972 5.47646e-07H3.04024C1.36811 5.47646e-07 5.45769e-07 1.37281 5.45769e-07 3.0507V18.2055C5.45769e-07 19.8834 1.36811 21.2562 3.04024 21.2562H3.88972C5.56185 21.2562 6.92996 19.8834 6.92996 18.2055V3.0507C6.92996 1.36384 5.56185 5.47646e-07 3.88972 5.47646e-07Z" transform="translate(11.535 18.7438)" fill="black"/>
<path d="M3.88972 1.25617C4.87332 1.25617 5.67809 2.06371 5.67809 3.0507V29.9596C5.67809 30.9466 4.87332 31.7542 3.88972 31.7542H3.04024C2.05663 31.7542 1.25186 30.9466 1.25186 29.9596V3.0507C1.25186 2.06371 2.05663 1.25617 3.04024 1.25617H3.88972ZM3.88972 -1.36912e-07H3.04024C1.36811 -1.36912e-07 5.45769e-07 1.37281 5.45769e-07 3.0507V29.9596C5.45769e-07 31.6375 1.36811 33.0103 3.04024 33.0103H3.88972C5.56185 33.0103 6.92996 31.6375 6.92996 29.9596V3.0507C6.92996 1.36384 5.56185 -1.36912e-07 3.88972 -1.36912e-07Z" transform="translate(23.07 6.98969)" fill="black"/>
</svg>
