<svg width="17" height="18" viewBox="0 0 17 18" fill="none" xmlns="http://www.w3.org/2000/svg">
<path d="M16.4898 12.2371C16.8482 11.7666 17.0201 11.2622 16.9981 10.7428C16.9762 10.1706 16.7275 9.72271 16.5227 9.44793C16.7604 8.83814 16.8519 7.87829 16.0583 7.133C15.4768 6.5872 14.4894 6.34253 13.1216 6.41029C12.1598 6.45546 11.3553 6.6399 11.3223 6.64743H11.3187C11.1358 6.6813 10.942 6.72271 10.7445 6.76788C10.7299 6.52698 10.7701 5.92848 11.2017 4.58093C11.7136 2.97742 11.6844 1.75031 11.1066 0.929736C10.4995 0.0677541 9.53037 0 9.24511 0C8.97083 0 8.71849 0.116688 8.5393 0.331242C8.13336 0.816813 8.1809 1.71267 8.2321 2.12673C7.74936 3.45922 6.39624 6.72647 5.25157 7.63363C5.22963 7.64868 5.21135 7.6675 5.19306 7.68632C4.85661 8.05144 4.62987 8.44668 4.47627 8.79297C4.2605 8.67252 4.01548 8.60477 3.75217 8.60477H1.52135C0.680218 8.60477 6.97534e-09 9.30866 6.97534e-09 10.1706V16.2873C6.97534e-09 17.1531 0.683875 17.8532 1.52135 17.8532H3.75217C4.07765 17.8532 4.38119 17.7478 4.62987 17.5671L5.48929 17.6725C5.62094 17.6913 7.96148 17.9962 10.3642 17.9473C10.7994 17.9812 11.209 18 11.5893 18C12.2439 18 12.8144 17.9473 13.2899 17.8419C14.4089 17.5972 15.1732 17.1079 15.5609 16.389C15.8571 15.8394 15.8571 15.2936 15.8096 14.9473C16.5373 14.2698 16.6653 13.5207 16.6397 12.9937C16.6251 12.6888 16.5593 12.4291 16.4898 12.2371ZM1.52135 16.8369C1.22512 16.8369 0.987413 16.5885 0.987413 16.2873V10.1669C0.987413 9.86198 1.22878 9.61731 1.52135 9.61731H3.75217C4.04839 9.61731 4.2861 9.86575 4.2861 10.1669V16.2836C4.2861 16.5885 4.04474 16.8331 3.75217 16.8331H1.52135V16.8369ZM15.5536 11.7967C15.4 11.9624 15.3707 12.2146 15.4878 12.4103C15.4878 12.4141 15.6377 12.6775 15.656 13.0389C15.6816 13.532 15.4512 13.9686 14.9685 14.3413C14.7966 14.4768 14.7271 14.7102 14.8002 14.921C14.8002 14.9247 14.9575 15.4216 14.7015 15.8921C14.4565 16.3438 13.9116 16.6675 13.0851 16.8482C12.4231 16.995 11.5235 17.0213 10.419 16.931C10.4044 16.931 10.3861 16.931 10.3678 16.931C8.01633 16.9837 5.63923 16.6675 5.61363 16.6637H5.60997L5.2406 16.6186C5.26255 16.5132 5.27352 16.4003 5.27352 16.2873V10.1669C5.27352 10.005 5.24792 9.84693 5.20403 9.70013C5.26986 9.44793 5.45271 8.88708 5.88425 8.40903C7.52628 7.06901 9.13174 2.54831 9.20123 2.35257C9.23048 2.27353 9.2378 2.18695 9.22317 2.10038C9.161 1.6788 9.18294 1.16311 9.27071 1.00878C9.46454 1.01255 9.9875 1.06901 10.302 1.51694C10.675 2.04768 10.6604 2.99624 10.2581 4.25345C9.64374 6.16938 9.59254 7.17817 10.0789 7.62233C10.3203 7.84442 10.6421 7.85571 10.8762 7.76913C11.0993 7.71644 11.3114 7.67127 11.5125 7.63739C11.5271 7.63363 11.5454 7.62986 11.56 7.6261C12.6828 7.3739 14.6942 7.21957 15.3927 7.87453C15.9851 8.43162 15.5646 9.16938 15.517 9.24843C15.3817 9.45922 15.4219 9.734 15.6048 9.90339C15.6084 9.90715 15.9924 10.2798 16.0107 10.7804C16.0254 11.1154 15.8718 11.458 15.5536 11.7967Z" transform="translate(17) scale(-1 1)" fill="#333333"/>
</svg>
