<svg width="14" height="15" viewBox="0 0 14 15" fill="none" xmlns="http://www.w3.org/2000/svg">
<path d="M13.5798 10.1976C13.875 9.80552 14.0165 9.38519 13.9985 8.95232C13.9804 8.47553 13.7756 8.10226 13.6069 7.87327C13.8027 7.36512 13.878 6.56524 13.2245 5.94417C12.7456 5.48934 11.9324 5.28545 10.806 5.34191C10.014 5.37955 9.35138 5.53325 9.32428 5.53952H9.32127C9.17068 5.56775 9.01106 5.60226 8.84843 5.6399C8.83638 5.43915 8.86951 4.9404 9.22489 3.81744C9.64653 2.48118 9.62244 1.45859 9.14659 0.77478C8.64664 0.0564618 7.84854 0 7.61362 0C7.38774 0 7.17994 0.0972397 7.03236 0.276035C6.69806 0.680678 6.73721 1.42723 6.77938 1.77227C6.38183 2.88268 5.26749 5.6054 4.32483 6.36135C4.30676 6.3739 4.2917 6.38959 4.27664 6.40527C3.99956 6.70954 3.81283 7.0389 3.68634 7.32748C3.50865 7.2271 3.30687 7.17064 3.09002 7.17064H1.25287C0.56018 7.17064 5.7444e-09 7.75721 5.7444e-09 8.47553V13.5728C5.7444e-09 14.2942 0.563191 14.8777 1.25287 14.8777H3.09002C3.35807 14.8777 3.60804 14.7898 3.81283 14.6393L4.52059 14.7271C4.62901 14.7428 6.55651 14.9969 8.53521 14.9561C8.8936 14.9843 9.23092 15 9.54413 15C10.0832 15 10.5531 14.9561 10.9446 14.8683C11.8662 14.6644 12.4956 14.2566 12.8149 13.6575C13.0588 13.1995 13.0588 12.7447 13.0197 12.4561C13.619 11.8915 13.7244 11.2673 13.7033 10.8281C13.6913 10.574 13.6371 10.3576 13.5798 10.1976ZM1.25287 14.0307C1.00893 14.0307 0.813164 13.8237 0.813164 13.5728V8.4724C0.813164 8.21832 1.01194 8.01443 1.25287 8.01443H3.09002C3.33397 8.01443 3.52973 8.22146 3.52973 8.4724V13.5696C3.52973 13.8237 3.33096 14.0276 3.09002 14.0276H1.25287V14.0307ZM12.8088 9.83061C12.6823 9.96863 12.6582 10.1788 12.7546 10.3419C12.7546 10.345 12.8781 10.5646 12.8932 10.8657C12.9142 11.2767 12.7245 11.6405 12.327 11.9511C12.1854 12.064 12.1282 12.2585 12.1884 12.4341C12.1884 12.4373 12.3179 12.8513 12.1071 13.2434C11.9053 13.6198 11.4566 13.8896 10.7759 14.0402C10.2308 14.1625 9.48992 14.1844 8.58039 14.1092C8.56834 14.1092 8.55328 14.1092 8.53822 14.1092C6.60169 14.1531 4.64407 13.8896 4.62299 13.8864H4.61998L4.31579 13.8488C4.33386 13.761 4.3429 13.6669 4.3429 13.5728V8.4724C4.3429 8.33752 4.32182 8.20577 4.28567 8.08344C4.33989 7.87327 4.49047 7.4059 4.84585 7.00753C6.19812 5.89084 7.52026 2.12359 7.57748 1.96048C7.60158 1.8946 7.6076 1.82246 7.59555 1.75031C7.54435 1.399 7.56242 0.96926 7.6347 0.840652C7.79433 0.843789 8.225 0.890841 8.48401 1.26412C8.7912 1.7064 8.77916 2.49686 8.44787 3.54454C7.9419 5.14115 7.89974 5.98181 8.30029 6.35194C8.49907 6.53701 8.7641 6.54642 8.95685 6.47428C9.14056 6.43036 9.31524 6.39272 9.48089 6.36449C9.49294 6.36135 9.50799 6.35822 9.52004 6.35508C10.4446 6.14492 12.1011 6.01631 12.6763 6.56211C13.1642 7.02635 12.8179 7.64115 12.7787 7.70703C12.6673 7.88268 12.7004 8.11167 12.851 8.25282C12.854 8.25596 13.1702 8.5665 13.1853 8.98369C13.1973 9.26286 13.0709 9.54831 12.8088 9.83061Z" transform="translate(14) scale(-1 1)" fill="#333333"/>
</svg>
