<svg width="70" height="43" viewBox="0 0 70 43" fill="none" xmlns="http://www.w3.org/2000/svg">
<path d="M38.2447 42.0764C38.1736 42.1244 38.221 42.1124 38.0908 42.1484L37.6765 42.1604C31.735 42.0884 25.4502 42.1604 19.5086 42.1604C18.4434 42.1604 1.36443 42.2563 0.808146 42.1244C0.701624 41.5607 0.772638 21.9976 0.772638 21.4938C0.772638 21.098 0.71346 1.73883 0.772638 1.17509C0.808146 0.81525 0.725295 1.367 0.79631 1.05514C0.79631 1.04315 0.819982 1.03115 0.819982 1.00716C0.819982 0.983173 0.831817 0.971178 0.843653 0.959184L38.2328 0.947189V12.0541C39.2507 12.0541 39.0613 12.4739 39.0613 9.95508C39.0613 8.46776 39.1087 0.659321 39.0732 0.311479C39.0377 -0.0243673 38.9666 0.0356053 38.5879 0.0356053C35.1792 0.0715889 31.6403 0.0475999 28.2434 0.0475999H1.81419C0.334715 0.0356053 0.0269855 -0.168302 0.00331402 0.371452C-0.00852174 0.611343 0.0151498 0.911206 0.0151498 1.16309V43H39.085V32.3848H38.2447V42.0764Z" fill="#F0AE00"/>
<path d="M37.5102 41.1172H0.0973163V0C0.0854805 0.0119945 0.0736447 0.023989 0.0736447 0.0479781C0.0736447 0.0719671 0.0618089 0.0839617 0.0499732 0.0959562C-0.0210414 0.383825 0.061809 -0.155929 0.0263017 0.215901C-0.0328771 0.779644 0.0263017 20.1388 0.0263017 20.5346C0.0263017 21.0504 -0.0447128 40.6135 0.061809 41.1652C0.61809 41.2972 17.6971 41.2012 18.7623 41.2012C24.7157 41.2012 31.0005 41.1292 36.9302 41.2012L37.3445 41.1892C37.4865 41.1532 37.451 41.1652 37.5102 41.1172Z" transform="translate(0.734497 0.959167)" fill="#F8D883"/>
<path d="M5.37344 11.2868L1.76353 2.92667L0.958696 10.915H-1.80599e-07L1.39662 -3.66044e-07L5.3616 9.33174L9.46861 -3.66044e-07L10.806 10.915H9.83552L9.07803 2.92667L5.37344 11.2868Z" transform="translate(9.82703 15.8564)" fill="#2B2A29"/>
<path d="M4.91184 2.73475C4.87633 2.23098 4.6988 1.79918 4.41474 1.43934C4.11884 1.07951 3.63358 0.887595 2.95894 0.887595C1.83454 0.887595 1.20725 1.49932 1.04155 2.72276L4.91184 2.73475ZM5.92972 3.46642H0.958697C0.958697 4.1621 1.13623 4.77382 1.47947 5.30158C1.81087 5.84134 2.34348 6.10521 3.08913 6.10521C3.96498 6.10521 4.66329 5.58945 5.18406 4.56991L5.97706 5.01371C5.693 5.55347 5.33793 5.99726 4.93551 6.33311C4.5331 6.68095 3.91764 6.86087 3.11281 6.86087C2.1186 6.86087 1.36111 6.52502 0.816667 5.84134C0.260386 5.16964 0 4.378 0 3.46642C0 2.4109 0.260386 1.57128 0.792996 0.935572C1.3256 0.299862 2.05942 7.32088e-07 3.04179 7.32088e-07C3.59807 7.32088e-07 4.08334 0.119946 4.50943 0.359837C4.93551 0.611722 5.27875 0.995545 5.55097 1.51131C5.81136 2.03907 5.92972 2.68677 5.92972 3.46642Z" transform="translate(21.2958 20.1625)" fill="#2B2A29"/>
<path d="M5.0657 8.00035C5.0657 7.26868 4.88817 6.64497 4.54493 6.11721C4.20169 5.58945 3.63358 5.33756 2.84058 5.33756C2.16594 5.33756 1.68068 5.56546 1.33744 6.03325C0.994204 6.50103 0.816667 7.12475 0.816667 7.8804C0.816667 8.60007 1.00604 9.22379 1.38478 9.76354C1.75169 10.3153 2.29614 10.5792 2.98261 10.5792C3.72827 10.5792 4.27271 10.3273 4.59227 9.79953C4.9 9.28376 5.0657 8.67204 5.0657 8.00035ZM0.852174 11.0829H0V3.66044e-07H0.852174V5.90131C1.36111 4.97773 2.0831 4.52194 3.04179 4.52194C3.88213 4.52194 4.60411 4.8098 5.17223 5.40953C5.72851 5.99726 6.01256 6.86087 6.01256 8.00035C6.01256 8.89994 5.76402 9.66759 5.26691 10.3393C4.74614 11.011 4.01232 11.3348 3.0773 11.3348C2.04759 11.3348 1.31377 10.867 0.864011 9.93147L0.852174 11.0829Z" transform="translate(28.3381 15.6885)" fill="#2B2A29"/>
<path d="M4.9 2.73475C4.8645 2.23098 4.68696 1.79918 4.4029 1.43934C4.10701 1.07951 3.62174 0.887595 2.9471 0.887595C1.82271 0.887595 1.19541 1.49932 1.02971 2.72276L4.9 2.73475ZM5.92972 3.46642H0.958697C0.958697 4.1621 1.13623 4.77382 1.47947 5.30158C1.81087 5.84134 2.34348 6.10521 3.08913 6.10521C3.96498 6.10521 4.66329 5.58945 5.18406 4.56991L5.97706 5.01371C5.693 5.55347 5.33793 5.99726 4.93551 6.33311C4.5331 6.68095 3.91764 6.86087 3.11281 6.86087C2.1186 6.86087 1.36111 6.52502 0.816666 5.84134C0.260385 5.16964 -7.22397e-07 4.378 -7.22397e-07 3.46642C-7.22397e-07 2.4109 0.260387 1.57128 0.792997 0.935572C1.32561 0.299862 2.05942 7.32088e-07 3.04179 7.32088e-07C3.59807 7.32088e-07 4.08334 0.119946 4.50942 0.359837C4.93551 0.611722 5.27875 0.995545 5.55097 1.51131C5.79952 2.03907 5.92972 2.68677 5.92972 3.46642Z" transform="translate(35.191 20.1625)" fill="#2B2A29"/>
<path d="M0.887683 11.0829H7.22397e-07V3.66044e-07H0.887683V11.0829Z" transform="translate(42.1387 15.6885)" fill="#2B2A29"/>
<path d="M1.36111 1.24743H1.44479e-06V3.66044e-07H1.36111V1.24743Z" transform="translate(44.5768 25.524)" fill="#2B2A29"/>
<path d="M5.50363 10.1594C6.34397 10.1594 7.10146 9.95546 7.79977 9.54764C8.48624 9.13983 9.03068 8.58808 9.42126 7.8924C9.82368 7.19672 10.0249 6.41707 10.0249 5.55347C10.0249 4.79781 9.85919 4.05415 9.52778 3.34647C9.18455 2.6268 8.67561 2.02707 7.98914 1.55929C7.30266 1.0915 6.486 0.863607 5.5273 0.863607C4.84083 0.863607 4.14252 1.03153 3.44421 1.36738C2.73406 1.71522 2.14227 2.24298 1.68068 2.93866C1.21908 3.64634 0.994205 4.50994 0.994205 5.49349C0.994205 6.32112 1.18358 7.10076 1.56232 7.80844C1.94106 8.50412 2.47367 9.07986 3.17198 9.51166C3.88213 9.94346 4.65145 10.1594 5.50363 10.1594ZM5.50363 10.987C4.53309 10.987 3.63358 10.7711 2.79324 10.3393C1.94106 9.90748 1.25459 9.28376 0.75749 8.45614C0.248552 7.62852 -1.44479e-06 6.63297 -1.44479e-06 5.44552C-1.44479e-06 4.35401 0.260387 3.39445 0.792996 2.56683C1.32561 1.7512 2.01208 1.11549 2.86425 0.671694C3.72826 0.227896 4.62778 -7.32088e-07 5.56281 -7.32088e-07C6.37947 -7.32088e-07 7.12513 0.143934 7.77609 0.431803C8.4389 0.707677 8.99518 1.11549 9.49228 1.60727C9.97754 2.11104 10.3563 2.69877 10.6285 3.37046C10.9007 4.06614 11.0309 4.77382 11.0309 5.52948C11.0309 6.60898 10.7824 7.56855 10.2853 8.39617C9.78817 9.22379 9.12537 9.8595 8.28503 10.3033C7.44469 10.7591 6.5215 10.987 5.50363 10.987Z" transform="translate(47.015 16.0603)" fill="#2B2A29"/>
<path d="M2.79324 0C3.01812 0 3.29034 0.0359836 3.58623 0.119945L3.32585 0.971557C3.26667 0.947568 3.17198 0.923579 3.0773 0.899589C2.95894 0.887595 2.85242 0.887594 2.75773 0.887594C2.20145 0.887594 1.73986 1.13948 1.38479 1.65525C1.02971 2.15902 0.852176 2.75874 0.852176 3.45442V6.54901H0V0.215902H0.852176V1.49932C1.19541 0.983551 1.51497 0.611722 1.7872 0.371831C2.07125 0.119946 2.41449 0 2.79324 0Z" transform="translate(59.5845 20.2104)" fill="#2B2A29"/>
<path d="M5.13672 1.42735V0.239891H6.01257V6.42907C6.01257 8.64805 5.01836 9.75155 3.02995 9.75155C1.52681 9.75155 0.603622 9.09185 0.24855 7.76046H1.33744C1.56232 8.5401 2.15411 8.93592 3.10097 8.93592C3.76377 8.93592 4.26088 8.73201 4.63962 8.33619C4.99469 7.95237 5.17223 7.34065 5.17223 6.52502V5.43352C4.66329 6.36909 3.92947 6.82488 2.95894 6.82488C2.10677 6.82488 1.39662 6.52502 0.852178 5.92529C0.272225 5.33756 1.44479e-06 4.47396 1.44479e-06 3.34647C1.44479e-06 2.42289 0.248552 1.64325 0.769326 0.983551C1.27826 0.323852 1.9884 0 2.9471 0C3.95314 0.0119945 4.68696 0.47978 5.13672 1.42735ZM0.923189 3.37046C0.923189 4.09013 1.10073 4.71385 1.4558 5.24161C1.79904 5.78136 2.36715 6.04524 3.14831 6.04524C3.82295 6.04524 4.32005 5.81734 4.67513 5.32557C5.00653 4.84579 5.17223 4.23407 5.17223 3.49041C5.17223 2.77074 4.98285 2.12303 4.60411 1.59527C4.22536 1.05552 3.69275 0.791639 3.00628 0.791639C2.26063 0.791639 1.72802 1.04352 1.40845 1.55929C1.08889 2.08705 0.923189 2.69877 0.923189 3.37046Z" transform="translate(63.9874 20.2104)" fill="#2B2A29"/>
</svg>
