<svg width="18" height="17" viewBox="0 0 18 17" fill="none" xmlns="http://www.w3.org/2000/svg">
<rect width="18" height="17" fill="white"/>
<path d="M14.467 17C13.718 17 12.8135 16.8227 11.8188 16.4682C9.63803 15.6917 7.26534 14.157 5.13785 12.1478C3.00976 10.1379 1.38478 7.89646 0.561995 5.83686C-0.185714 3.96423 -0.18753 2.42724 0.557757 1.72394C0.664918 1.62273 0.773896 1.51409 0.886507 1.40202C1.56641 0.726728 2.3347 -0.0331872 3.35304 0.0011205C4.05473 0.0285666 4.73464 0.440259 5.43088 1.2585C7.48814 3.6749 6.56062 4.53602 5.48719 5.53438L5.29769 5.71163C5.12211 5.87745 4.79034 6.64537 7.87683 9.56038C8.88427 10.5118 9.74338 11.2083 10.4299 11.6297C10.8622 11.895 11.6354 12.2964 11.9526 11.9968L12.1433 11.815C13.1992 10.8035 14.111 9.93033 16.6677 11.8716C17.5341 12.5291 17.9694 13.1707 17.9985 13.8345C18.0402 14.7957 17.2295 15.5231 16.5139 16.1646C16.3959 16.271 16.2808 16.3739 16.1737 16.4745C15.8038 16.8245 15.2122 17 14.467 17ZM3.28039 0.571771C2.5569 0.571771 1.90363 1.22133 1.32545 1.79598C1.2092 1.91149 1.09659 2.02356 0.985798 2.1282C0.430616 2.65196 0.486921 4.02827 1.12868 5.63558C1.9218 7.62085 3.49774 9.79024 5.5665 11.7441C7.63466 13.6967 9.93046 15.1851 12.0331 15.9336C13.735 16.5408 15.1923 16.5923 15.7462 16.0691C15.857 15.9645 15.9757 15.8581 16.098 15.7489C16.7198 15.1908 17.4251 14.5584 17.3942 13.8568C17.373 13.3748 17.0013 12.8562 16.2893 12.3159C14.1588 10.6977 13.5631 11.2689 12.575 12.2152L12.3812 12.3999C11.909 12.8465 11.1419 12.7476 10.1006 12.1083C9.3783 11.6646 8.4859 10.943 7.44939 9.9635C4.88781 7.54481 4.06866 6.06443 4.87025 5.30566L5.06339 5.12554C6.0678 4.19237 6.67384 3.62916 4.95986 1.61587C4.38651 0.94401 3.83799 0.592928 3.32761 0.572343C3.31187 0.571771 3.29613 0.571771 3.28039 0.571771Z" fill="#333333"/>
</svg>
