<svg width="14" height="15" viewBox="0 0 14 15" fill="none" xmlns="http://www.w3.org/2000/svg">
<path d="M9.65473 10.6608C9.52135 10.7941 9.40656 10.9405 9.30729 11.0953L4.90882 8.42843C5.02515 8.13755 5.09107 7.82126 5.09107 7.48945C5.09107 7.15764 5.02515 6.84134 4.90907 6.55047L9.30856 3.90389C9.76037 4.61276 10.5525 5.08518 11.4546 5.08518C12.8581 5.08518 14 3.94457 14 2.54259C14 1.14061 12.8581 0 11.4546 0C10.0511 0 8.90918 1.14061 8.90918 2.54259C8.90918 2.86194 8.97104 3.16654 9.07896 3.44826L4.67362 6.0984C4.21851 5.4058 3.43503 4.94686 2.54541 4.94686C1.14187 4.94686 -5.34048e-09 6.08746 -5.34048e-09 7.48945C-5.34048e-09 8.89143 1.14187 10.032 2.54541 10.032C3.43503 10.032 4.21825 9.5731 4.67337 8.8805L9.07794 11.551C8.96849 11.8373 8.90893 12.1431 8.90893 12.4587C8.90893 13.1378 9.17365 13.7765 9.65448 14.2565C10.1506 14.7521 10.8025 15 11.4543 15C12.1062 15 12.7581 14.7521 13.2542 14.2565C13.735 13.7763 13.9997 13.1378 13.9997 12.4587C13.9997 11.7796 13.735 11.1409 13.2542 10.6608C12.2617 9.66921 10.6472 9.66921 9.65473 10.6608ZM11.4546 0.508518C12.5774 0.508518 13.4909 1.42105 13.4909 2.54259C13.4909 3.66412 12.5774 4.57666 11.4546 4.57666C10.3318 4.57666 9.41827 3.66412 9.41827 2.54259C9.41827 1.42105 10.3316 0.508518 11.4546 0.508518ZM2.54566 9.52352C1.42288 9.52352 0.509336 8.61098 0.509336 7.48945C0.509336 6.36791 1.42288 5.45538 2.54566 5.45538C3.66844 5.45538 4.58199 6.36791 4.58199 7.48945C4.58199 8.61098 3.66844 9.52352 2.54566 9.52352ZM12.8943 13.897C12.1004 14.6901 10.8086 14.6901 10.0147 13.897C9.63004 13.5128 9.41827 13.0018 9.41827 12.4587C9.41827 11.9156 9.63004 11.4045 10.0147 11.0203C10.4117 10.6237 10.933 10.4256 11.4546 10.4256C11.9761 10.4256 12.4974 10.6237 12.8945 11.0203C13.2791 11.4045 13.4909 11.9156 13.4909 12.4587C13.4909 13.0018 13.2791 13.5128 12.8943 13.897Z" fill="black"/>
</svg>
