<svg width="30" height="28" viewBox="0 0 30 28" fill="none" xmlns="http://www.w3.org/2000/svg">
<path d="M29.9504 8.34932C29.5125 3.51093 26.1009 0.000579183 21.8314 0.000579183C18.987 0.000579183 16.3826 1.53712 14.9172 3.99975C13.4649 1.50526 10.9673 -1.43608e-08 8.16846 -1.43608e-08C3.89953 -1.43608e-08 0.487394 3.51035 0.0500589 8.34874C0.0154413 8.56246 -0.126491 9.68721 0.305075 11.5214C0.927037 14.1671 2.36367 16.5735 4.45861 18.479L14.9102 28L25.5413 18.4796C27.6362 16.5735 29.0729 14.1677 29.6948 11.5214C30.1264 9.68779 29.9845 8.56304 29.9504 8.34932ZM28.5715 11.2562C28.0038 13.6725 26.6877 15.8739 24.7693 17.6184L14.9172 26.442L5.23404 17.6207C3.31219 15.8727 1.99672 13.6719 1.42842 11.2556C1.01993 9.51983 1.18782 8.53929 1.1884 8.53292L1.19705 8.47442C1.57208 4.23547 4.50361 1.15834 8.16846 1.15834C10.8727 1.15834 13.2532 2.82635 14.3829 5.51081L14.9143 6.77514L15.4456 5.51081C16.5574 2.86747 19.0638 1.15892 21.832 1.15892C25.4963 1.15892 28.4284 4.23605 28.8109 8.53002C28.8121 8.53929 28.98 9.5204 28.5715 11.2562Z" fill="#333333"/>
</svg>
