<svg width="30" height="30" viewBox="0 0 30 30" fill="none" xmlns="http://www.w3.org/2000/svg">
<path d="M15 30C6.72909 30 0 23.2709 0 15C0 6.72909 6.72909 0 15 0C23.2709 0 30 6.72909 30 15C30 23.2709 23.2709 30 15 30ZM15 0.909091C7.23 0.909091 0.909091 7.23 0.909091 15C0.909091 22.77 7.23 29.0909 15 29.0909C22.77 29.0909 29.0909 22.77 29.0909 15C29.0909 7.23 22.77 0.909091 15 0.909091Z" fill="black"/>
<path d="M8.87201 25.4682C5.74928 25.4682 2.74837 24.5064 0.191098 22.6864C0.0547344 22.5891 -0.0179932 22.4227 0.003825 22.2564C0.0256432 22.09 0.13837 21.9482 0.296552 21.89C4.06564 20.4946 4.67383 19.3618 4.67383 17.1909C4.67383 16.6173 4.54473 16.4291 4.31201 16.0873C4.00383 15.6382 3.58201 15.0227 3.28564 13.4155C3.24201 13.1846 3.20473 13.1664 2.99837 13.0664C2.44746 12.8009 1.9411 12.4191 1.80837 10.6773C1.80837 9.83366 2.09928 9.36729 2.34019 9.12457C2.28746 8.82456 2.2011 8.30729 2.12019 7.74366C1.70837 5.21911 1.69019 2.12729 5.2411 0.690019C8.33564 -0.564526 10.8056 0.120928 11.5811 0.938201C12.1302 0.955474 13.5466 1.09911 14.532 2.24547C16.0484 4.00911 15.5656 8.03002 15.4002 9.12002C15.642 9.35729 15.9356 9.81729 15.9356 10.6427C15.8029 12.4191 15.2966 12.8018 14.7447 13.0664C14.5375 13.1664 14.5002 13.1837 14.4575 13.4155C14.1611 15.0227 13.7402 15.6382 13.432 16.0873C13.1984 16.4282 13.0702 16.6173 13.0702 17.1909C13.0702 19.3618 13.6784 20.4946 17.4475 21.89C17.6056 21.9482 17.7184 22.0891 17.7402 22.2564C17.762 22.4237 17.6893 22.5891 17.5529 22.6864C14.9956 24.5064 11.9947 25.4682 8.87201 25.4682ZM1.43292 22.4237C3.6711 23.8237 6.22564 24.5591 8.87201 24.5591C11.5184 24.5591 14.0729 23.8237 16.3111 22.4237C13.1529 21.1273 12.1611 19.82 12.1611 17.1918C12.1611 16.3364 12.4138 15.9664 12.682 15.5746C12.9584 15.1709 13.302 14.6691 13.5647 13.2509C13.6911 12.5655 14.0884 12.3746 14.3511 12.2482C14.6338 12.1127 14.9247 11.9727 15.0275 10.6091C15.0266 9.91457 14.7147 9.72547 14.702 9.7182C14.5347 9.62184 14.4266 9.41911 14.462 9.23002C14.6875 8.02184 15.0584 4.25366 13.8429 2.8382C13.0129 1.87275 11.7047 1.84638 11.4556 1.85638C11.4138 1.85275 11.3729 1.85184 11.3338 1.84184C11.2156 1.81184 11.0156 1.70911 10.9547 1.60366C10.7075 1.18002 8.55383 0.328201 5.58201 1.53093C2.64473 2.72002 2.63837 5.26911 3.01928 7.60547C3.14473 8.47547 3.28201 9.22729 3.28292 9.23093C3.32019 9.43547 3.21383 9.63911 3.02564 9.72547C3.02837 9.72547 2.71746 9.91547 2.71746 10.6418C2.81928 11.97 3.1111 12.1109 3.39292 12.2464C3.65564 12.3727 4.05382 12.5637 4.18019 13.2491C4.44201 14.6673 4.78564 15.1691 5.06201 15.5727C5.3311 15.9646 5.58383 16.3346 5.58383 17.19C5.58383 19.8209 4.59201 21.1282 1.43292 22.4237Z" transform="translate(6.12796 4.5318)" fill="black"/>
</svg>
