<svg width="15" height="15" viewBox="0 0 15 15" fill="none" xmlns="http://www.w3.org/2000/svg">
<path d="M1.25 2.5C1.93925 2.5 2.5 1.93925 2.5 1.25C2.5 0.56075 1.93925 0 1.25 0C0.56075 0 0 0.56075 0 1.25C0 1.93925 0.56075 2.5 1.25 2.5ZM1.25 0.5C1.6635 0.5 2 0.8365 2 1.25C2 1.6635 1.6635 2 1.25 2C0.8365 2 0.5 1.6635 0.5 1.25C0.5 0.8365 0.8365 0.5 1.25 0.5Z" transform="translate(11.25 5.5)" fill="black"/>
<path d="M6.25 0H0.25C0.11175 0 0 0.11175 0 0.25C0 0.38825 0.11175 0.5 0.25 0.5H6.25C6.38825 0.5 6.5 0.38825 6.5 0.25C6.5 0.11175 6.38825 0 6.25 0Z" transform="translate(4.25 10.75)" fill="black"/>
<path d="M6.25 0H0.25C0.11175 0 0 0.11175 0 0.25C0 0.38825 0.11175 0.5 0.25 0.5H6.25C6.38825 0.5 6.5 0.38825 6.5 0.25C6.5 0.11175 6.38825 0 6.25 0Z" transform="translate(4.25 12)" fill="black"/>
<path d="M12.75 4.25V0H2.25V4.25H0V12.75H1.5V13.5H2.25V15H12.75V13.5H13.5V12.75H15V4.25H12.75ZM2.75 0.5H12.25V4.25H2.75V0.5ZM2.25 4.75H12.75H14.5V8.75H0.5V4.75H2.25ZM2 13V12.5V12.25V11.25C2 11.1117 1.88825 11 1.75 11C1.61175 11 1.5 11.1117 1.5 11.25V12.25H0.5V9.25H2.25V13H2ZM12.25 14.5H2.75V13.5V9.25H12.25V13.5V14.5ZM13.5 12.25V11.25C13.5 11.1117 13.3883 11 13.25 11C13.1117 11 13 11.1117 13 11.25V12.25V12.5V13H12.75V9.25H14.5V12.25H13.5Z" fill="black"/>
</svg>
