<svg width="26" height="17" viewBox="0 0 26 17" fill="none" xmlns="http://www.w3.org/2000/svg">
<path d="M17.5245 3.32686L10.9489 1.05245C10.3259 0.838888 9.62842 0.8816 9.03208 1.16991L8.70197 1.33007C8.25472 1.54897 7.7276 1.58101 7.25906 1.41016L6.69467 1.20728C6.66805 1.19126 6.64143 1.17524 6.6148 1.16457L3.24978 0.0166843C3.16991 -0.0100106 3.0794 -0.00467148 3.00486 0.0327014C2.93032 0.0700743 2.87175 0.134142 2.84513 0.214227L0.017868 8.48432C-0.0407005 8.64983 0.0498144 8.83135 0.214871 8.89008L3.58522 10.0486C3.62249 10.0647 3.65444 10.07 3.69171 10.07C3.73963 10.07 3.78755 10.0593 3.83014 10.038C3.90468 10.0006 3.96325 9.93652 3.98987 9.85644L6.71064 1.90135L7.0514 2.02414C7.67968 2.24838 8.38783 2.20567 8.98949 1.91202L9.3196 1.75185C9.76153 1.53296 10.2833 1.50092 10.7465 1.66109L17.0773 3.85008C17.0293 4.1277 16.8962 4.58686 16.5501 4.82711C16.2413 5.04067 15.7941 5.05135 15.2297 4.85381L12.4663 3.9088C12.3811 3.88211 12.2906 3.88745 12.2108 3.93016C12.1309 3.97287 12.0776 4.04762 12.051 4.13304C12.0457 4.14906 11.6357 5.66533 10.3579 6.34872C9.54855 6.78652 8.54756 6.80254 7.38152 6.40211C7.21646 6.34338 7.03543 6.43415 6.97686 6.59965C6.91829 6.76516 7.00881 6.94669 7.17387 7.00542C7.79682 7.21898 8.38783 7.32576 8.93624 7.32576C9.56452 7.32576 10.1396 7.18694 10.6614 6.90398C11.8008 6.28999 12.3492 5.16881 12.5568 4.61355L15.0114 5.45711C15.7834 5.72406 16.417 5.68669 16.9069 5.35033C17.6949 4.80575 17.7322 3.68457 17.7375 3.63652C17.7428 3.4977 17.6523 3.36957 17.5245 3.32686ZM3.4947 9.33855L0.726014 8.38821L3.34562 0.72677L6.03977 1.65041C6.06107 1.66109 6.08236 1.67177 6.10366 1.68245L6.11431 1.68779L3.4947 9.33855Z" fill="black"/>
<path d="M20.8022 8.00915L16.958 0.176854C16.9207 0.102108 16.8569 0.0433792 16.777 0.0166843C16.6971 -0.0100106 16.6066 -0.00467148 16.5321 0.0327014L13.3321 1.60236C13.1724 1.68245 13.1085 1.86931 13.183 2.02948L16.9101 9.66423L15.6589 10.8121C14.5993 11.7891 13.4013 12.606 12.1075 13.2414L5.9791 16.2472C5.80872 16.3326 5.61704 16.3433 5.43601 16.2792C5.25498 16.2152 5.11122 16.087 5.02603 15.9162C4.94084 15.7453 4.93019 15.5531 4.99409 15.3716C5.05798 15.1901 5.18576 15.0459 5.35614 14.9605L8.77974 13.2787C8.93947 13.1986 9.00336 13.0118 8.92882 12.8516C8.84895 12.6914 8.65728 12.6274 8.50287 12.7021L5.15382 14.3465L3.46598 15.1741C3.11457 15.3449 2.68329 15.2008 2.51291 14.8484C2.34253 14.496 2.48629 14.0689 2.8377 13.8927L7.75745 11.4795C7.91718 11.3994 7.98108 11.2125 7.90653 11.0524C7.82667 10.8922 7.63499 10.8281 7.48058 10.9029L3.83869 12.6914L2.56083 13.3161L1.95918 13.6097C1.60776 13.7806 1.17649 13.6364 1.00611 13.2841C0.835726 12.9317 0.979486 12.4992 1.3309 12.3284L1.93788 12.0294L6.34116 9.86712C6.50089 9.78703 6.56478 9.60017 6.49024 9.44C6.41038 9.27983 6.2187 9.21576 6.06429 9.2905L3.23703 10.6786L1.66101 11.4528C1.49063 11.5382 1.29895 11.5489 1.11792 11.4848C0.93689 11.4208 0.793131 11.2926 0.707941 11.1218C0.62275 10.9509 0.612102 10.7587 0.675994 10.5772C0.739887 10.3957 0.867673 10.2515 1.03805 10.1661L3.37547 9.01822C3.5352 8.93813 3.59909 8.75127 3.52455 8.5911C3.44468 8.43093 3.25301 8.36686 3.0986 8.44161L0.761185 9.58949C0.436396 9.74966 0.191474 10.0273 0.0743367 10.369C-0.0428002 10.7107 -0.0215023 11.0791 0.13823 11.4047C0.260691 11.661 0.463018 11.8639 0.707941 11.9974C0.303286 12.3978 0.180825 13.0225 0.441721 13.5564C0.675994 14.0369 1.15519 14.3145 1.65568 14.3145C1.71425 14.3145 1.77282 14.3092 1.83139 14.3038C1.78879 14.5708 1.82074 14.8537 1.94853 15.1207C2.1828 15.6012 2.662 15.8788 3.16249 15.8788C3.35949 15.8788 3.56182 15.8361 3.7535 15.74L4.33386 15.4517C4.30724 15.7026 4.34983 15.9536 4.46697 16.1831C4.6267 16.5088 4.90357 16.7544 5.24433 16.8719C5.38809 16.9199 5.53717 16.9466 5.68626 16.9466C5.88859 16.9466 6.09091 16.8986 6.27727 16.8078L12.4057 13.8019C13.7581 13.1399 14.9986 12.2857 16.1061 11.2659L17.4958 9.98457L20.6532 8.43627C20.8129 8.35618 20.8768 8.16932 20.8022 8.00915ZM17.4479 9.31186L13.8965 2.03482L16.5267 0.748125L20.0728 8.02516L17.4479 9.31186Z" transform="translate(5.16675 0.0532227)" fill="black"/>
</svg>
