<svg width="18" height="19" viewBox="0 0 18 19" fill="none" xmlns="http://www.w3.org/2000/svg">
<path d="M9.00289 1.7297L7.91382 0.587997C7.20359 -0.156564 6.00684 -0.199871 5.24598 0.491512L3.33196 2.23083C3.30746 2.25309 3.28643 2.27929 3.26973 2.30842L1.40653 5.56202L0.210206 5.98005C0.109108 6.01538 0.032683 6.10307 0.00822274 6.21176C-0.0162376 6.32046 0.0147003 6.43468 0.0900281 6.51368L3.3504 9.9316C3.40874 9.99272 3.48721 10.026 3.56778 10.026C3.59132 10.026 3.615 10.0231 3.6384 10.0174C3.74208 9.99172 3.82573 9.9116 3.85943 9.80561L4.2583 8.55106L7.40752 6.55755C7.43523 6.53996 7.46015 6.51795 7.48132 6.4922L9.10115 4.52433C9.75698 3.72767 9.71284 2.474 9.00289 1.7297ZM8.63573 4.10325L7.04787 6.03227L3.84361 8.06062C3.78106 8.10022 3.73401 8.16189 3.7109 8.23463L3.43348 9.10714L2.69878 8.33694C2.69864 8.33679 2.69854 8.3366 2.6984 8.33646L1.61156 7.19716C1.61145 7.19705 1.61131 7.19698 1.6112 7.19687L0.87644 6.42659L1.70873 6.13576C1.77832 6.11142 1.83733 6.06184 1.87506 5.99594L3.77164 2.68419L5.64867 0.978498C6.17091 0.50387 6.99201 0.533112 7.47906 1.04377L8.56816 2.18548C9.05545 2.69625 9.08575 3.55659 8.63573 4.10325Z" transform="translate(8.43457)" fill="black"/>
<path d="M16.5659 12.3536C15.6634 11.4075 14.3351 11.0787 13.1316 11.4877L6.59871 4.63908C6.98883 3.3774 6.67513 1.98483 5.77268 1.0387C4.82188 0.0420141 3.39848 -0.269778 2.14629 0.244705C2.04976 0.284375 1.97875 0.372398 1.95755 0.478828C1.93635 0.58522 1.96774 0.695694 2.04109 0.772585L3.99653 2.8225L2.69235 4.18968L0.736942 2.13973C0.663561 2.06288 0.558321 2.03003 0.456728 2.05215C0.355205 2.07438 0.271205 2.14878 0.233399 2.25002C-0.257294 3.56265 0.0400177 5.05489 0.990784 6.05168C1.8933 6.99778 3.22163 7.32672 4.42514 6.91763L6.86791 9.47846L3.82588 12.6676L1.89107 13.8017C1.83727 13.8332 1.79373 13.881 1.76615 13.9388L0.89673 15.7617C0.837544 15.8858 0.86073 16.0356 0.954288 16.1337L2.04105 17.2731C2.10006 17.3349 2.17875 17.3674 2.25851 17.3674C2.3052 17.3674 2.35224 17.3563 2.39592 17.3334L4.13476 16.4219C4.18991 16.393 4.23551 16.3474 4.2656 16.291L5.34737 14.2626L8.38948 11.0736L10.958 13.7663C10.5679 15.028 10.8816 16.4205 11.7841 17.3667C12.4306 18.0444 13.2954 18.4054 14.1765 18.4054C14.5912 18.4053 15.0097 18.3253 15.4104 18.1607C15.507 18.121 15.578 18.033 15.5992 17.9266C15.6204 17.8202 15.589 17.7097 15.5156 17.6328L13.5602 15.5829L14.8643 14.2157L16.8197 16.2656C16.8931 16.3425 16.9984 16.3755 17.1 16.3532C17.2015 16.331 17.2855 16.2566 17.3233 16.1554C17.814 14.8427 17.5167 13.3504 16.5659 12.3536ZM4.88245 13.8385C4.86245 13.8594 4.84535 13.8832 4.83155 13.9091L3.77515 15.8898L2.31914 16.653L1.54569 15.8422L2.27366 14.3158L4.16305 13.2084C4.18776 13.1939 4.21041 13.176 4.23041 13.155L7.3026 9.93428L7.95468 10.6179L4.88245 13.8385ZM16.8889 15.4266L15.0817 13.5321C14.9617 13.4063 14.7671 13.4063 14.647 13.5321L12.9082 15.3549C12.8505 15.4154 12.8181 15.4973 12.8181 15.5828C12.8181 15.6683 12.8505 15.7502 12.9082 15.8107L14.7153 17.7053C13.8193 17.8919 12.8796 17.6036 12.2188 16.9109C11.4409 16.0954 11.1976 14.8743 11.5991 13.8002C11.6437 13.6809 11.6166 13.5453 11.5303 13.4547L4.72234 6.31779C4.66358 6.25623 4.58496 6.22342 4.50489 6.22342C4.46723 6.22342 4.42921 6.2307 4.39282 6.24565C3.36825 6.66662 2.20346 6.41149 1.42548 5.59601C0.764694 4.90326 0.489648 3.91808 0.667808 2.97877L2.47497 4.87331C2.59504 4.99915 2.78962 4.99907 2.9097 4.87331L4.64854 3.05043C4.76857 2.92455 4.76857 2.72056 4.64854 2.59469L2.84138 0.700148C3.73745 0.513117 4.6771 0.801679 5.33792 1.49447C6.11587 2.31002 6.35916 3.53111 5.95764 4.60523C5.91307 4.7245 5.94008 4.8601 6.02645 4.95068L12.8343 12.0875C12.9208 12.1781 13.0502 12.2064 13.1638 12.1597C14.1885 11.7389 15.3532 11.9938 16.1312 12.8093C16.792 13.5021 17.067 14.4873 16.8889 15.4266Z" transform="translate(0 0.594727)" fill="black"/>
</svg>
