<svg width="28" height="16" viewBox="0 0 28 16" fill="none" xmlns="http://www.w3.org/2000/svg">
<path d="M10.653 0.908265H0.448359C0.200865 0.908265 -6.15727e-08 0.704814 -6.15727e-08 0.454132C-6.15727e-08 0.203451 0.200865 -9.70132e-08 0.448359 -9.70132e-08H10.653C10.9005 -9.70132e-08 11.1014 0.203451 11.1014 0.454132C11.1014 0.704814 10.9005 0.908265 10.653 0.908265Z" transform="translate(8.56079 12.6321)" fill="black"/>
<path d="M2.87757 5.82834C1.29038 5.82834 1.02621e-07 4.52134 1.02621e-07 2.91462C1.02621e-07 1.30699 1.29038 2.35603e-07 2.87757 2.35603e-07C4.46386 2.35603e-07 5.75424 1.30699 5.75424 2.91462C5.75424 4.52044 4.46296 5.82834 2.87757 5.82834ZM2.87757 0.908265C1.78536 0.908265 0.896717 1.80836 0.896717 2.91462C0.896717 4.02089 1.78536 4.92007 2.87757 4.92007C3.96977 4.92007 4.85752 4.02089 4.85752 2.91462C4.85752 1.80836 3.96977 0.908265 2.87757 0.908265Z" transform="translate(3.70337 10.1716)" fill="black"/>
<path d="M2.87667 5.82834C1.29038 5.82834 4.10485e-08 4.52134 4.10485e-08 2.91462C4.10485e-08 1.30699 1.29038 2.35603e-07 2.87667 2.35603e-07C4.46386 2.35603e-07 5.75424 1.30699 5.75424 2.91462C5.75424 4.52044 4.46296 5.82834 2.87667 5.82834ZM2.87667 0.908265C1.78447 0.908265 0.896717 1.80836 0.896717 2.91462C0.896717 4.02089 1.78447 4.92007 2.87667 4.92007C3.96887 4.92007 4.85752 4.02089 4.85752 2.91462C4.85752 1.80836 3.96887 0.908265 2.87667 0.908265Z" transform="translate(18.7656 10.1716)" fill="black"/>
<path d="M10.6557 0.908265H0.448359C0.200865 0.908265 3.01022e-07 0.704814 3.01022e-07 0.454132C3.01022e-07 0.203451 0.200865 -9.70132e-08 0.448359 -9.70132e-08H10.6557C10.9032 -9.70132e-08 11.1041 0.203451 11.1041 0.454132C11.1041 0.704814 10.9032 0.908265 10.6557 0.908265Z" transform="translate(8.56201 12.6321)" fill="black"/>
<path d="M25.8551 13.5404H24.0688C23.8213 13.5404 23.6204 13.337 23.6204 13.0863C23.6204 12.8356 23.8213 12.6322 24.0688 12.6322H25.8551C26.5428 12.6322 27.1024 12.0654 27.1024 11.3688V9.61489C27.1024 8.96821 26.8423 8.33606 26.3886 7.8792L24.3773 5.85468C24.3396 5.81653 24.3091 5.77202 24.2858 5.72298L22.6367 2.10808C22.3041 1.37875 21.5768 0.908265 20.785 0.908265H2.31712C1.53428 0.908265 0.896717 1.55404 0.896717 2.34696V11.3697C0.896717 12.0663 1.45537 12.6331 2.14315 12.6331H4.14821C4.39571 12.6331 4.59657 12.8365 4.59657 13.0872C4.59657 13.3379 4.39571 13.5413 4.14821 13.5413H2.14315C0.961281 13.5404 0 12.5668 0 11.3688V2.34696C0 1.05268 1.0393 -9.00837e-08 2.31712 -9.00837e-08H20.785C21.9256 -9.00837e-08 22.9721 0.677566 23.4518 1.72661L25.0668 5.26794L27.0217 7.23524C27.6431 7.86013 28 8.72843 28 9.61489V11.3688C27.9991 12.5668 27.0369 13.5404 25.8551 13.5404Z" fill="black"/>
<path d="M13.3638 0.908265H0.448359C0.200865 0.908265 -1.88139e-07 0.704814 -1.88139e-07 0.454133C-1.88139e-07 0.203452 0.200865 2.70251e-07 0.448359 2.70251e-07H13.3638C13.6113 2.70251e-07 13.8121 0.203452 13.8121 0.454133C13.8121 0.704814 13.6113 0.908265 13.3638 0.908265Z" transform="translate(5.91382 6.38867)" fill="black"/>
</svg>
