<svg width="23" height="18" viewBox="0 0 23 18" fill="none" xmlns="http://www.w3.org/2000/svg">
<path d="M2.57012 1.05819e-07C1.15 1.05819e-07 1.86444e-07 1.10369 1.86444e-07 2.46554C1.86444e-07 3.82717 1.14996 4.93156 2.57012 4.93156C3.98947 4.93156 5.14002 3.82713 5.14002 2.46554C5.14002 1.10365 3.98947 1.05819e-07 2.57012 1.05819e-07ZM2.57012 4.19182C1.57829 4.19182 0.771265 3.41736 0.771265 2.46554C0.771265 1.51398 1.57833 0.73974 2.57012 0.73974C3.56195 0.73974 4.36871 1.51398 4.36871 2.46554C4.36875 3.41736 3.56195 4.19182 2.57012 4.19182Z" transform="translate(8.93042 4.19153)" fill="black"/>
<path d="M2.05621 -4.36502e-08C0.920001 -4.36502e-08 5.37396e-07 0.88299 5.37396e-07 1.97234C5.37396e-07 3.0619 0.919732 3.94515 2.05621 3.94515C3.19139 3.94515 4.11193 3.0619 4.11193 1.97234C4.11193 0.88299 3.19144 -4.36502e-08 2.05621 -4.36502e-08ZM2.05621 3.20545C1.34757 3.20545 0.771041 2.65213 0.771041 1.97234C0.770772 1.29276 1.3473 0.739697 2.05621 0.739697C2.76463 0.739697 3.34067 1.29276 3.34067 1.97234C3.34067 2.65213 2.76463 3.20545 2.05621 3.20545Z" transform="translate(12.7693)" fill="black"/>
<path d="M21.2722 1.05142C21.0182 1.05142 20.7839 1.11085 20.5756 1.20035C20.2599 0.812211 19.7695 0.561209 19.2165 0.560733C18.9305 0.560472 18.6678 0.633463 18.4419 0.742471L17.7123 1.15696C17.3957 0.793746 16.9216 0.560993 16.3895 0.560733C16.1036 0.560472 15.8411 0.633463 15.6151 0.742471L12.9891 2.28428C12.3517 2.10328 9.58374 1.34997 9.05146 1.22107C8.7844 1.15649 8.55134 1.10343 8.36047 1.06572C8.26492 1.047 8.18007 1.0317 8.10464 1.02061C8.02823 1.00977 7.96457 1.00214 7.89252 1.00188C7.83704 1.00214 7.78929 1.00708 7.7343 1.01324C7.53525 1.03864 7.25207 1.09685 6.91807 1.17174C6.23548 1.32583 5.36404 1.54948 4.88284 1.67526V0.98632C4.88284 0.443878 4.42055 -3.12165e-07 3.85525 -3.12165e-07H1.02781C0.462831 -3.12165e-07 0 0.443835 0 0.98632V8.63017C0 9.17262 0.462831 9.61649 1.02781 9.61649H3.85475C4.42032 9.61649 4.88234 9.17266 4.88234 8.63017V8.03667C5.49234 8.16415 6.84656 8.44475 8.27409 8.72609C9.23955 8.9162 10.2375 9.10656 11.0614 9.25007C11.4737 9.32159 11.8427 9.38149 12.1442 9.42388C12.4486 9.46627 12.6758 9.4924 12.8488 9.49318C12.9835 9.4927 13.1107 9.468 13.2485 9.43202C13.5048 9.36272 13.7964 9.24513 14.1302 9.08953C15.2919 8.54604 16.9605 7.52774 18.5344 6.52018C20.1055 5.51414 21.575 4.52023 22.2952 4.04454C22.7465 3.74616 23 3.24269 23 2.70961C22.9995 1.79407 22.227 1.05164 21.2722 1.05142ZM4.11189 8.63013C4.11189 8.76376 3.99406 8.87671 3.8548 8.87671H1.02781C0.888556 8.87671 0.770726 8.76376 0.770726 8.63013V0.98632C0.770726 0.852692 0.888556 0.73974 1.02781 0.73974H3.85475C3.99401 0.73974 4.11184 0.852692 4.11184 0.98632V8.63013H4.11189ZM21.859 3.43526C20.9732 4.02066 18.9916 5.36321 17.0734 6.55836C16.1154 7.15559 15.1726 7.71554 14.3998 8.12167C14.0139 8.3246 13.6697 8.48883 13.3942 8.59832C13.2567 8.65332 13.1363 8.69423 13.041 8.71963C12.9462 8.74551 12.8749 8.75414 12.8488 8.75366C12.7648 8.7544 12.5422 8.73298 12.2565 8.69224C11.2437 8.54999 9.34849 8.18673 7.71674 7.86031C6.90024 7.69682 6.14766 7.54273 5.59943 7.42904C5.28103 7.3632 5.0349 7.31167 4.88207 7.27986V2.44231C4.95718 2.42259 5.0561 2.39667 5.1747 2.36563C5.58106 2.25988 6.20125 2.10128 6.75734 1.96991C7.03487 1.90407 7.2973 1.84543 7.50588 1.80373C7.60987 1.78306 7.70034 1.76672 7.77011 1.75614C7.83857 1.74505 7.89149 1.74136 7.89202 1.74184C7.89355 1.74158 7.93394 1.74405 7.98888 1.7522C8.20149 1.78275 8.63773 1.88062 9.1688 2.01429C10.7696 2.41522 13.2937 3.1404 14.3134 3.43778C14.6661 3.53985 14.9857 3.69372 15.1951 3.8804C15.3006 3.97363 15.3796 4.07323 15.4328 4.18098C15.4862 4.28921 15.516 4.40658 15.5166 4.54962C15.5163 4.8398 15.3952 5.09925 15.1969 5.28983C15.0001 5.47794 14.7328 5.59337 14.4341 5.5958L13.4397 5.50235L10.0449 5.08439C9.8336 5.05851 9.64012 5.2015 9.61325 5.40396C9.58644 5.60667 9.73567 5.7921 9.94676 5.81797L13.3526 6.23736L14.4067 6.33649H14.4257C15.4538 6.33601 16.2874 5.53659 16.2879 4.54979C16.2884 4.30122 16.2309 4.06825 16.1295 3.86358C15.9766 3.55562 15.7305 3.31715 15.4528 3.13567C15.1737 2.95372 14.8588 2.82403 14.5379 2.73032C14.3841 2.68542 14.1949 2.63046 13.9816 2.56905L15.9677 1.40151C16.1034 1.33714 16.2425 1.30091 16.3894 1.30065C16.6386 1.30039 16.8634 1.3931 17.0337 1.54306L16 2.13115C15.817 2.23522 15.7567 2.46229 15.8653 2.63809C15.9742 2.81363 16.2106 2.87158 16.3936 2.7673L18.7925 1.40224C18.9289 1.33714 19.0687 1.30091 19.2164 1.30065C19.4825 1.30039 19.7216 1.40666 19.8947 1.57536L17.1012 3.16506C16.918 3.26913 16.8576 3.4962 16.9665 3.672C17.0752 3.84754 17.3115 3.90549 17.4945 3.80121L20.8486 1.8925C20.9848 1.82813 21.1244 1.79164 21.2719 1.79138C21.5368 1.79164 21.774 1.89345 21.9481 2.06063C22.1218 2.22806 22.2284 2.4554 22.2287 2.71013C22.229 3.01955 22.0808 3.29028 21.859 3.43526Z" transform="translate(0 8.38342)" fill="black"/>
</svg>
