<svg width="11" height="9" viewBox="0 0 11 9" fill="none" xmlns="http://www.w3.org/2000/svg">
<path d="M5.50001 0C2.46731 0 1.47821e-05 1.91242 1.47821e-05 4.26316C1.47821e-05 5.085 0.301964 5.88095 0.874147 6.56905C0.765797 7.60121 0.475397 8.36747 0.0537314 8.73047C-0.00200188 8.77847 -0.0159352 8.85189 0.0192648 8.91253C0.0506147 8.96668 0.114598 9 0.183348 9C0.191781 9 0.200398 8.99953 0.209014 8.99842C0.283264 8.98942 2.00806 8.77547 3.25546 8.15558C3.96404 8.40174 4.71864 8.52632 5.50001 8.52632C8.5327 8.52632 11 6.61389 11 4.26316C11 1.91242 8.5327 0 5.50001 0Z" fill="black" fill-opacity="0.2"/>
</svg>
